# xmcd
#
# Track frame offsets: 
#        150
#        20738
#        41098
#        63933
#        86490
#        111620
#        130586
#        160081
#        194991
#        211781
#
# Disc length: 3070 seconds
#
# Revision: 2
# Processed by: cddbd v1.5.1PL2 Copyright (c) Steve Scherf et al.
# Submitted via: ExactAudioCopy v0.90b4
#
DISCID=8e0bfc0a
DTITLE=James and Lucky Peterson - If You Can't  Fix It
DYEAR=2004
DGENRE=Blues
TTITLE0=Strange Things Happenin' Every Day
TTITLE1=Time to Go
TTITLE2=Cripple Man
TTITLE3=Somewhere In Between
TTITLE4=If You Can't Fix It                   
TTITLE5=Never Take Sand to the Beach                
TTITLE6=Get Down
TTITLE7=Too Young to Die
TTITLE8=Don't Give the Devil No Ground
TTITLE9=More Harm Than Good
EXTD=
EXTT0=
EXTT1=
EXTT2=
EXTT3=
EXTT4=
EXTT5=
EXTT6=
EXTT7=
EXTT8=
EXTT9=
PLAYORDER=
